<svg xmlns="http://www.w3.org/2000/svg" viewBox="0 0 1280 1300" font-family="Segoe UI, Arial, sans-serif" font-size="11">
<style>.tbl{fill:#ffffff;stroke:#1a4f8a;stroke-width:1.5}.hdr{fill:#1a4f8a}.hdrtext{fill:#ffffff;font-weight:700;font-size:13px}.col{fill:#222}.pk{fill:#a85b00;font-weight:700}.fk{fill:#0a6e2e}.line{fill:none;stroke:#444;stroke-width:1.4}.title{font-size:18px;font-weight:700;fill:#1a4f8a}.note{font-size:10px;fill:#666}.legend{fill:#fafafa;stroke:#888}</style>
<text x="640.0" y="22" text-anchor="middle" class="title">Treeningute registri füüsiline andmemudel (PostgreSQL)</text>
<defs><marker id="arrow" viewBox="0 0 10 10" refX="9" refY="5" markerWidth="8" markerHeight="8" orient="auto"><path d="M0,0 L10,5 L0,10 z" fill="#444"/></marker></defs>
<path d="M 940,285.0 C 905.0,285.0 965.0,263.0 930,263.0" class="line" marker-end="url(#arrow)"/>
<path d="M 330,535.0 C 155.0,535.0 215.0,73.0 40,73.0" class="line" marker-end="url(#arrow)"/>
<path d="M 330,557.0 C 365.0,557.0 305.0,73.0 340,73.0" class="line" marker-end="url(#arrow)"/>
<path d="M 390,513.0 C 330.0,513.0 390.0,711.0 330,711.0" class="line" marker-end="url(#arrow)"/>
<path d="M 700,513.0 C 660.0,513.0 720.0,513.0 680,513.0" class="line" marker-end="url(#arrow)"/>
<path d="M 700,535.0 C 845.0,535.0 785.0,73.0 930,73.0" class="line" marker-end="url(#arrow)"/>
<path d="M 330,913.0 C 545.0,913.0 485.0,513.0 700,513.0" class="line" marker-end="url(#arrow)"/>
<path d="M 330,935.0 C 155.0,935.0 215.0,263.0 40,263.0" class="line" marker-end="url(#arrow)"/>
<path d="M 680,935.0 C 840.0,935.0 780.0,73.0 940,73.0" class="line" marker-end="url(#arrow)"/>
<path d="M 680,957.0 C 505.0,957.0 565.0,513.0 390,513.0" class="line" marker-end="url(#arrow)"/>
<path d="M 680,979.0 C 505.0,979.0 565.0,513.0 390,513.0" class="line" marker-end="url(#arrow)"/>
<path d="M 820,913.0 C 720.0,913.0 780.0,913.0 680,913.0" class="line" marker-end="url(#arrow)"/>
<path d="M 1110,935.0 C 995.0,935.0 1055.0,263.0 940,263.0" class="line" marker-end="url(#arrow)"/>
<rect class="tbl" x="40" y="30" width="290" height="104" rx="3"/>
<rect class="hdr" x="40" y="30" width="290" height="32" rx="3"/>
<text class="hdrtext" x="185.0" y="50.0" text-anchor="middle">riik</text>
<text class="pk" x="50" y="76" font-family="Consolas, monospace">   PK  riigi_kood: VARCHAR(10)</text>
<text class="col" x="50" y="98" font-family="Consolas, monospace">   NN  nimetus: VARCHAR(200)</text>
<text class="col" x="50" y="120" font-family="Consolas, monospace">   NN  on_aktiivne: BOOLEAN</text>
<rect class="tbl" x="340" y="30" width="290" height="104" rx="3"/>
<rect class="hdr" x="340" y="30" width="290" height="32" rx="3"/>
<text class="hdrtext" x="485.0" y="50.0" text-anchor="middle">isiku_seisundi_liik</text>
<text class="pk" x="350" y="76" font-family="Consolas, monospace">   PK  kood: VARCHAR(10)</text>
<text class="col" x="350" y="98" font-family="Consolas, monospace">   NN  nimetus: VARCHAR(200)</text>
<text class="col" x="350" y="120" font-family="Consolas, monospace">   NN  on_aktiivne: BOOLEAN</text>
<rect class="tbl" x="640" y="30" width="290" height="104" rx="3"/>
<rect class="hdr" x="640" y="30" width="290" height="32" rx="3"/>
<text class="hdrtext" x="785.0" y="50.0" text-anchor="middle">tootaja_seisundi_liik</text>
<text class="pk" x="650" y="76" font-family="Consolas, monospace">   PK  kood: VARCHAR(10)</text>
<text class="col" x="650" y="98" font-family="Consolas, monospace">   NN  nimetus: VARCHAR(200)</text>
<text class="col" x="650" y="120" font-family="Consolas, monospace">   NN  on_aktiivne: BOOLEAN</text>
<rect class="tbl" x="40" y="220" width="290" height="126" rx="3"/>
<rect class="hdr" x="40" y="220" width="290" height="32" rx="3"/>
<text class="hdrtext" x="185.0" y="240.0" text-anchor="middle">tootaja_roll</text>
<text class="pk" x="50" y="266" font-family="Consolas, monospace">   PK  kood: VARCHAR(10)</text>
<text class="col" x="50" y="288" font-family="Consolas, monospace">   NN  nimetus: VARCHAR(200)</text>
<text class="col" x="50" y="310" font-family="Consolas, monospace">   NN  on_aktiivne: BOOLEAN</text>
<text class="col" x="50" y="332" font-family="Consolas, monospace">       kirjeldus: TEXT</text>
<rect class="tbl" x="940" y="30" width="290" height="104" rx="3"/>
<rect class="hdr" x="940" y="30" width="290" height="32" rx="3"/>
<text class="hdrtext" x="1085.0" y="50.0" text-anchor="middle">treeningu_seisundi_liik</text>
<text class="pk" x="950" y="76" font-family="Consolas, monospace">   PK  kood: VARCHAR(10)</text>
<text class="col" x="950" y="98" font-family="Consolas, monospace">   NN  nimetus: VARCHAR(200)</text>
<text class="col" x="950" y="120" font-family="Consolas, monospace">   NN  on_aktiivne: BOOLEAN</text>
<rect class="tbl" x="640" y="220" width="290" height="104" rx="3"/>
<rect class="hdr" x="640" y="220" width="290" height="32" rx="3"/>
<text class="hdrtext" x="785.0" y="240.0" text-anchor="middle">treeningu_kategooria_tyyp</text>
<text class="pk" x="650" y="266" font-family="Consolas, monospace">   PK  kood: VARCHAR(10)</text>
<text class="col" x="650" y="288" font-family="Consolas, monospace">   NN  nimetus: VARCHAR(200)</text>
<text class="col" x="650" y="310" font-family="Consolas, monospace">   NN  on_aktiivne: BOOLEAN</text>
<rect class="tbl" x="940" y="220" width="290" height="126" rx="3"/>
<rect class="hdr" x="940" y="220" width="290" height="32" rx="3"/>
<text class="hdrtext" x="1085.0" y="240.0" text-anchor="middle">treeningu_kategooria</text>
<text class="pk" x="950" y="266" font-family="Consolas, monospace">   PK  kood: VARCHAR(10)</text>
<text class="fk" x="950" y="288" font-family="Consolas, monospace">   FK  treeningu_kategooria_tyyp_kood: VARCHAR(10)</text>
<text class="col" x="950" y="310" font-family="Consolas, monospace">   NN  nimetus: VARCHAR(200)</text>
<text class="col" x="950" y="332" font-family="Consolas, monospace">   NN  on_aktiivne: BOOLEAN</text>
<rect class="tbl" x="40" y="470" width="290" height="258" rx="3"/>
<rect class="hdr" x="40" y="470" width="290" height="32" rx="3"/>
<text class="hdrtext" x="185.0" y="490.0" text-anchor="middle">isik</text>
<text class="pk" x="50" y="516" font-family="Consolas, monospace">   PK  isikukood: VARCHAR(20)</text>
<text class="pk" x="50" y="538" font-family="Consolas, monospace">PK,FK  riigi_kood: VARCHAR(10)</text>
<text class="fk" x="50" y="560" font-family="Consolas, monospace">   FK  isiku_seisundi_liik_kood: VARCHAR(10)</text>
<text class="col" x="50" y="582" font-family="Consolas, monospace">       synni_kp: DATE</text>
<text class="col" x="50" y="604" font-family="Consolas, monospace">   NN  reg_aeg: TIMESTAMP</text>
<text class="col" x="50" y="626" font-family="Consolas, monospace">   NN  viimase_muutm_aeg: TIMESTAMP</text>
<text class="col" x="50" y="648" font-family="Consolas, monospace">       eesnimi: VARCHAR(200)</text>
<text class="col" x="50" y="670" font-family="Consolas, monospace">       perenimi: VARCHAR(200)</text>
<text class="col" x="50" y="692" font-family="Consolas, monospace">       elukoht: VARCHAR(500)</text>
<text class="col" x="50" y="714" font-family="Consolas, monospace">       e_meil: VARCHAR(254)</text>
<rect class="tbl" x="390" y="470" width="290" height="104" rx="3"/>
<rect class="hdr" x="390" y="470" width="290" height="32" rx="3"/>
<text class="hdrtext" x="535.0" y="490.0" text-anchor="middle">kasutajakonto</text>
<text class="pk" x="400" y="516" font-family="Consolas, monospace">PK,FK  e_meil: VARCHAR(254)</text>
<text class="col" x="400" y="538" font-family="Consolas, monospace">   NN  parool: VARCHAR(255)</text>
<text class="col" x="400" y="560" font-family="Consolas, monospace">   NN  on_aktiivne: BOOLEAN</text>
<rect class="tbl" x="700" y="470" width="290" height="82" rx="3"/>
<rect class="hdr" x="700" y="470" width="290" height="32" rx="3"/>
<text class="hdrtext" x="845.0" y="490.0" text-anchor="middle">tootaja</text>
<text class="pk" x="710" y="516" font-family="Consolas, monospace">PK,FK  e_meil: VARCHAR(254)</text>
<text class="fk" x="710" y="538" font-family="Consolas, monospace">   FK  tootaja_seisundi_liik_kood: VARCHAR(10)</text>
<rect class="tbl" x="40" y="870" width="290" height="126" rx="3"/>
<rect class="hdr" x="40" y="870" width="290" height="32" rx="3"/>
<text class="hdrtext" x="185.0" y="890.0" text-anchor="middle">tootaja_rolli_omamine</text>
<text class="pk" x="50" y="916" font-family="Consolas, monospace">PK,FK  tootaja_e_meil: VARCHAR(254)</text>
<text class="pk" x="50" y="938" font-family="Consolas, monospace">PK,FK  tootaja_roll_kood: VARCHAR(10)</text>
<text class="pk" x="50" y="960" font-family="Consolas, monospace">   PK  alguse_aeg: TIMESTAMP</text>
<text class="col" x="50" y="982" font-family="Consolas, monospace">   NN  lopu_aeg: TIMESTAMP</text>
<rect class="tbl" x="390" y="870" width="290" height="302" rx="3"/>
<rect class="hdr" x="390" y="870" width="290" height="32" rx="3"/>
<text class="hdrtext" x="535.0" y="890.0" text-anchor="middle">treening</text>
<text class="pk" x="400" y="916" font-family="Consolas, monospace">   PK  treeningu_kood: INTEGER</text>
<text class="fk" x="400" y="938" font-family="Consolas, monospace">   FK  treeningu_seisundi_liik_kood: VARCHAR(10)</text>
<text class="fk" x="400" y="960" font-family="Consolas, monospace">   FK  registreerija_e_meil: VARCHAR(254)</text>
<text class="fk" x="400" y="982" font-family="Consolas, monospace">   FK  viimase_muutja_e_meil: VARCHAR(254)</text>
<text class="col" x="400" y="1004" font-family="Consolas, monospace">   NN  reg_aeg: TIMESTAMP</text>
<text class="col" x="400" y="1026" font-family="Consolas, monospace">   NN  viimase_muutm_aeg: TIMESTAMP</text>
<text class="col" x="400" y="1048" font-family="Consolas, monospace">   NN  nimetus: VARCHAR(200)</text>
<text class="col" x="400" y="1070" font-family="Consolas, monospace">       kirjeldus: TEXT</text>
<text class="col" x="400" y="1092" font-family="Consolas, monospace">       kestus_minutites: INTEGER</text>
<text class="col" x="400" y="1114" font-family="Consolas, monospace">       maksimaalne_osalejate_arv: INTEGER</text>
<text class="col" x="400" y="1136" font-family="Consolas, monospace">       vajalik_varustus: TEXT</text>
<text class="col" x="400" y="1158" font-family="Consolas, monospace">       hind: NUMERIC(8,2)</text>
<rect class="tbl" x="820" y="870" width="290" height="82" rx="3"/>
<rect class="hdr" x="820" y="870" width="290" height="32" rx="3"/>
<text class="hdrtext" x="965.0" y="890.0" text-anchor="middle">treeningu_kategooria_omamine</text>
<text class="pk" x="830" y="916" font-family="Consolas, monospace">PK,FK  treeningu_kood: INTEGER</text>
<text class="pk" x="830" y="938" font-family="Consolas, monospace">PK,FK  treeningu_kategooria_kood: VARCHAR(10)</text>
<rect class="legend" x="40" y="1180" width="510" height="80" rx="4"/>
<text x="50" y="1198" font-weight="700" fill="#1a4f8a">Legend</text>
<text x="50" y="1218" class="pk" font-family="Consolas">PK</text><text x="85" y="1218">primaarvõti</text>
<text x="190" y="1218" class="fk" font-family="Consolas">FK</text><text x="225" y="1218">võõrvõti</text>
<text x="300" y="1218" font-family="Consolas">PK,FK</text><text x="350" y="1218">identifikaatorist tulenev FK</text>
<text x="50" y="1238" font-family="Consolas">NN</text><text x="85" y="1238">NOT NULL ilma võtmeta</text>
<text x="300" y="1238">Nool näitab võõrvõtme suunda viidatavale tabelile.</text>
</svg>